<mxfile host="app.diagrams.net" modified="2024-01-16T12:53:14.320Z" agent="Mozilla/5.0 (Macintosh; Intel Mac OS X 10_15_7) AppleWebKit/605.1.15 (KHTML, like Gecko) Version/16.6 Safari/605.1.15" version="22.1.18" etag="R9zfUUKV175RbjBCanQ2" type="github">
  <diagram name="Page-1" id="pEqcNYE-4Zpc27wdJLrb">
    <mxGraphModel>
      <root>
        <mxCell id="0" />
        <mxCell id="1" parent="0" />
      </root>
    </mxGraphModel>
  </diagram>
</mxfile>
